<svg id="Layer_1" data-name="Layer 1" xmlns="http://www.w3.org/2000/svg" viewBox="0 0 16 16"><defs><style>.cls-1{fill:#3f3f3f;}.cls-2{fill:#ffd415;}</style></defs><circle class="cls-1" cx="8" cy="8" r="8"/><path class="cls-2" d="M6.66,6.45A4.26,4.26,0,0,1,6,4.34a2.81,2.81,0,0,1,.33-1.12,2.85,2.85,0,0,1,.73-.94,3.16,3.16,0,0,1,2.32-.64,1.47,1.47,0,0,1,.68.26,1.44,1.44,0,0,1,.47.63,2,2,0,0,1-.13,1.4A14.42,14.42,0,0,1,7.64,7.48a20.56,20.56,0,0,0-1.4,1.58c-.21.26-.42.56-.61.84a4.57,4.57,0,0,0-.45.84,2.29,2.29,0,0,0-.14.42,2.51,2.51,0,0,0-.08.45A1.26,1.26,0,0,0,5,12c0,.12,0,.12.07.18a.88.88,0,0,0,.57.21,8.09,8.09,0,0,0,1,0,8.52,8.52,0,0,0,3.83-1.29,5.42,5.42,0,0,0,1.5-1.3,1.57,1.57,0,0,0,.2-1.67A2.4,2.4,0,0,0,10.54,7,4.75,4.75,0,0,0,8.42,7a4.22,4.22,0,0,1,2.17-.34,2.82,2.82,0,0,1,2,1.1A2.11,2.11,0,0,1,13,9a2.85,2.85,0,0,1-.37,1.21A6,6,0,0,1,11,11.89a8.92,8.92,0,0,1-4.26,1.65,5.74,5.74,0,0,1-1.19.05A2.06,2.06,0,0,1,4.11,13a1.58,1.58,0,0,1-.37-.8,2.68,2.68,0,0,1,0-.69,4,4,0,0,1,.1-.62A4.39,4.39,0,0,1,4,10.27a6,6,0,0,1,.59-1.06c.22-.31.43-.61.67-.91A21.74,21.74,0,0,1,6.79,6.65,15.77,15.77,0,0,0,9.53,3.53a1.11,1.11,0,0,0,.16-.7c-.07-.22-.17-.31-.45-.39a2.5,2.5,0,0,0-1.81.34A2.63,2.63,0,0,0,6.34,4.37,4.75,4.75,0,0,0,6.66,6.45Z"/></svg>