<svg id="Layer_1" data-name="Layer 1" xmlns="http://www.w3.org/2000/svg" viewBox="0 0 11.48 14.95"><defs><style>.cls-1{fill:#ffd415;}</style></defs><path class="cls-1" d="M5.39,6.53a5.33,5.33,0,0,1-.78-2.67A3.69,3.69,0,0,1,5,2.47,3.42,3.42,0,0,1,6,1.32,3.93,3.93,0,0,1,8.83.54a1.83,1.83,0,0,1,.82.32,1.69,1.69,0,0,1,.55.75A2.35,2.35,0,0,1,10,3.29,18.35,18.35,0,0,1,6.51,7.73c-.62.66-1.24,1.32-1.79,2-.27.34-.53.71-.78,1.07a5.87,5.87,0,0,0-.59,1.1c-.07.19-.15.4-.19.56a4.17,4.17,0,0,0-.1.6,2.34,2.34,0,0,0,0,.53.52.52,0,0,0,.13.31,1.27,1.27,0,0,0,.84.31,7.66,7.66,0,0,0,1.26,0,10.91,10.91,0,0,0,4.92-1.68,7.15,7.15,0,0,0,1.92-1.7,2.11,2.11,0,0,0,.24-2.23,3.11,3.11,0,0,0-2-1.39A6.65,6.65,0,0,0,9,7.09a4.38,4.38,0,0,0-1.34.18,5.42,5.42,0,0,1,2.74-.39,3.51,3.51,0,0,1,2.52,1.41,2.49,2.49,0,0,1,.4,1.51,3.31,3.31,0,0,1-.47,1.47,7.55,7.55,0,0,1-2.07,2.07,11.38,11.38,0,0,1-5.34,2,7.16,7.16,0,0,1-1.48.06,2.45,2.45,0,0,1-1.65-.71,1.76,1.76,0,0,1-.43-.93,3.41,3.41,0,0,1,0-.84A4.81,4.81,0,0,1,2,12.2a6,6,0,0,1,.24-.75,7.32,7.32,0,0,1,.73-1.32c.27-.39.54-.76.85-1.14A25.27,25.27,0,0,1,5.66,6.91a19.59,19.59,0,0,0,3.48-4,1.57,1.57,0,0,0,.21-1,.79.79,0,0,0-.67-.57,3.27,3.27,0,0,0-2.36.47A3.35,3.35,0,0,0,4.94,3.89,5.8,5.8,0,0,0,5.39,6.53Z" transform="translate(-1.81 -0.5)"/></svg>